<svg xmlns="http://www.w3.org/2000/svg" viewBox="0 0 21.09 21.09"><defs><style>.cls-1{fill:#9392c6;}.cls-2{fill:none;}</style></defs><title>资源 2</title><g id="图层_2" data-name="图层 2"><g id="图层_1-2" data-name="图层 1"><rect class="cls-1" x="0.17" y="13.24" width="7.57" height="1.5"/><rect class="cls-1" x="6.24" y="13.24" width="1.5" height="7.57"/><rect class="cls-1" x="-0.79" y="16.48" width="9" height="1.5" transform="translate(-11.1 7.67) rotate(-45)"/><rect class="cls-1" x="12.11" y="13.38" width="7.57" height="1.5"/><rect class="cls-1" x="12.11" y="13.38" width="1.5" height="7.57"/><rect class="cls-1" x="15.39" y="12.87" width="1.5" height="9" transform="translate(-7.56 16.5) rotate(-45)"/><rect class="cls-1" x="0.17" y="7.05" width="7.57" height="1.5"/><rect class="cls-1" x="6.24" y="0.98" width="1.5" height="7.57"/><rect class="cls-1" x="2.96" y="0.05" width="1.5" height="9" transform="translate(-2.13 3.96) rotate(-45)"/><rect class="cls-1" x="12.02" y="7.05" width="7.57" height="1.5"/><rect class="cls-1" x="12.02" y="0.98" width="1.5" height="7.57"/><rect class="cls-1" x="11.55" y="3.8" width="9" height="1.5" transform="translate(1.48 12.68) rotate(-45)"/><rect class="cls-2" x="0.17" width="20.92" height="20.95"/></g></g></svg>